<?xml version="1.0" standalone="no"?>
<!DOCTYPE svg PUBLIC "-//W3C//DTD SVG 20010904//EN"
 "http://www.w3.org/TR/2001/REC-SVG-20010904/DTD/svg10.dtd">
<svg version="1.0" xmlns="http://www.w3.org/2000/svg"
 width="171.000000pt" height="171.000000pt" viewBox="0 0 171.000000 171.000000"
 preserveAspectRatio="xMidYMid meet">
<metadata>
Created by potrace 1.14, written by Peter Selinger 2001-2017
</metadata>
<g transform="translate(0.000000,171.000000) scale(0.100000,-0.100000)"
fill="#000000" stroke="none">
<path d="M0 855 l0 -845 855 0 855 0 0 845 0 845 -855 0 -855 0 0 -845z m560
615 c7 -13 21 -20 38 -20 16 0 34 -6 41 -12 11 -10 13 -10 7 0 -9 16 4 15 45
-3 25 -10 29 -15 14 -15 -30 -2 -79 -33 -90 -58 -6 -14 -16 -20 -26 -17 -18 6
-34 -21 -18 -30 5 -4 6 -12 2 -18 -5 -9 -3 -9 8 0 16 13 59 7 59 -9 0 -6 6 -8
14 -5 10 4 16 -5 20 -29 4 -19 12 -35 19 -35 21 -3 41 -1 64 6 19 6 21 4 16
-16 -6 -22 -7 -22 -15 -3 -5 12 -6 3 -3 -26 2 -25 2 -37 -1 -27 -6 20 -24 23
-24 5 0 -9 -4 -8 -10 2 -7 11 -10 4 -10 -25 0 -27 3 -35 9 -26 5 7 14 10 21 6
9 -6 9 -9 -1 -16 -9 -6 -1 -9 24 -9 20 0 37 5 37 10 0 6 -7 10 -15 10 -8 0
-15 5 -15 10 0 17 18 11 34 -12 9 -12 16 -19 16 -15 0 5 6 5 12 1 25 -15 50
-12 45 6 -3 13 0 16 14 13 15 -4 17 -9 9 -18 -8 -9 -8 -15 0 -20 6 -3 8 -11 5
-16 -10 -16 22 -10 63 12 24 13 38 27 35 35 -2 7 5 19 16 26 12 7 21 18 21 24
0 13 29 28 48 25 7 -1 16 8 22 21 6 15 9 18 9 7 1 -9 11 -20 24 -24 14 -4 17
-8 9 -12 -10 -4 -9 -8 5 -19 14 -11 15 -13 3 -14 -13 0 -13 -1 0 -10 13 -9 13
-11 0 -19 -8 -6 -11 -13 -7 -18 4 -4 17 -2 27 5 23 14 25 10 8 -18 -11 -17
-10 -22 1 -29 10 -7 11 -13 2 -30 -7 -12 -16 -19 -22 -16 -5 4 -9 1 -9 -4 0
-6 9 -11 20 -11 11 0 20 -4 20 -10 0 -5 5 -10 10 -10 7 0 7 6 0 19 -17 32 -12
46 8 28 10 -10 21 -14 25 -11 3 3 4 -18 2 -48 -4 -68 -4 -66 -15 -48 -5 8 -12
11 -17 7 -4 -4 -1 -17 6 -29 12 -19 11 -20 -12 -14 -17 4 -27 1 -31 -9 -7 -20
-46 -20 -46 0 0 8 -4 15 -9 15 -13 0 -22 -28 -11 -35 6 -4 10 -17 10 -30 0
-23 -1 -24 -31 -11 -32 14 -58 48 -59 78 0 9 -6 19 -12 21 -8 4 -7 6 3 6 9 1
19 -8 22 -19 7 -26 27 -26 27 1 0 11 5 29 11 41 14 26 6 33 -14 13 -9 -8 -20
-14 -25 -13 -16 5 -92 -71 -86 -86 4 -11 -2 -15 -23 -15 -47 -2 -62 -4 -61
-10 2 -22 -5 -31 -22 -31 -11 0 -20 -5 -20 -11 0 -6 -9 -9 -20 -6 -11 3 -23 1
-26 -5 -3 -5 -12 -1 -20 9 -8 11 -13 13 -14 6 0 -15 -71 -13 -82 2 -5 6 -12 5
-20 -3 -10 -10 -10 -15 2 -23 11 -8 9 -9 -11 -5 -19 4 -29 1 -33 -11 -4 -9 -5
-16 -4 -17 2 -1 18 -9 36 -18 19 -10 40 -18 48 -18 8 0 24 -5 37 -12 12 -6 29
-14 37 -18 8 -5 14 -18 12 -30 -2 -18 1 -20 20 -14 13 4 30 7 38 7 8 0 18 5
23 11 4 7 9 3 13 -11 4 -13 10 -20 15 -17 5 3 9 -2 9 -10 0 -19 17 -21 22 -4
3 9 9 8 22 -5 22 -22 25 -21 19 1 -6 26 28 65 50 57 9 -4 14 -11 11 -16 -3 -5
2 -9 10 -9 9 0 16 -2 16 -4 0 -2 3 -11 6 -20 4 -12 0 -16 -17 -17 l-24 -2 23
-4 c27 -5 19 -23 -11 -23 -15 0 -18 -3 -10 -11 8 -8 60 -15 136 -19 5 0 6 -4
2 -9 -3 -5 7 -11 22 -13 33 -5 18 -13 -41 -23 -29 -5 -36 -9 -25 -16 21 -14
-7 -29 -53 -29 -21 0 -38 -4 -38 -10 0 -5 7 -7 15 -4 11 5 15 -1 15 -23 0 -29
-15 -53 -33 -53 -5 0 -4 6 2 14 10 12 7 18 -18 30 -33 17 -52 20 -50 9 1 -5
-2 -18 -6 -30 -9 -26 -62 -30 -68 -4 -3 9 -4 -6 -3 -33 1 -31 -4 -51 -11 -53
-8 -3 -13 4 -13 16 0 12 -4 21 -10 21 -5 0 -10 -9 -10 -20 0 -23 -31 -41 -38
-22 -2 7 -13 12 -23 12 -11 0 -18 4 -15 8 2 4 -3 13 -13 19 -14 9 -19 6 -30
-18 -14 -32 -31 -38 -31 -11 0 14 -2 15 -10 2 -6 -10 -5 -17 6 -23 17 -10 10
-27 -12 -27 -8 0 -14 8 -15 18 -1 11 -4 9 -9 -8 -8 -24 -8 -24 -9 -2 -1 32
-21 27 -21 -5 l-1 -28 -13 24 c-11 19 -14 21 -19 7 -7 -16 -37 -12 -37 6 0 6
7 8 15 4 8 -3 15 -1 15 4 0 6 8 10 18 10 10 0 13 3 6 8 -6 4 -14 14 -17 22 -4
10 -6 8 -6 -7 -1 -28 -5 -28 -39 -4 -15 10 -34 18 -42 18 -8 0 -28 4 -44 8
l-29 8 22 -22 c11 -11 27 -21 34 -21 8 0 14 -6 14 -14 0 -11 -5 -12 -24 -3
-12 5 -23 14 -23 18 0 4 -9 11 -21 14 -13 5 -18 12 -14 22 3 9 -2 23 -10 32
-9 9 -22 25 -30 36 -7 11 -17 17 -21 13 -4 -5 1 -17 11 -28 10 -11 13 -20 7
-20 -6 0 -25 20 -43 45 -18 25 -37 45 -42 45 -5 0 -7 10 -4 21 4 16 3 19 -5
11 -13 -13 -35 18 -63 84 -12 30 -12 35 -1 31 10 -4 12 0 9 14 -3 10 0 25 5
32 8 10 6 17 -8 29 -21 19 -30 14 -31 -16 0 -19 -1 -18 -10 4 -36 90 -40 284
-9 398 42 152 130 290 240 376 94 74 150 92 170 56z m175 -87 c5 -15 4 -16 -6
-5 -14 13 -33 17 -25 4 2 -4 -13 -8 -34 -7 -39 0 -42 9 -5 18 41 10 63 7 70
-10z m285 7 c0 -5 -2 -10 -4 -10 -3 0 -8 5 -11 10 -3 6 -1 10 4 10 6 0 11 -4
11 -10z m145 -98 c-8 -8 -76 9 -71 17 3 5 21 3 40 -3 19 -6 33 -12 31 -14z
m-307 -156 c-7 -8 -15 -12 -17 -11 -5 6 10 25 20 25 5 0 4 -6 -3 -14z m342 4
c0 -5 -5 -10 -11 -10 -5 0 -7 5 -4 10 3 6 8 10 11 10 2 0 4 -4 4 -10z m77
-152 c-3 -8 -6 -5 -6 6 -1 11 2 17 5 13 3 -3 4 -12 1 -19z m-290 -134 c-3 -3
-12 -4 -19 -1 -8 3 -5 6 6 6 11 1 17 -2 13 -5z m-83 -52 c3 -5 19 -7 36 -4 18
2 30 0 30 -7 0 -6 -16 -11 -35 -11 -19 0 -38 0 -42 -1 -5 0 -9 7 -11 15 -4 17
13 22 22 8z m-44 -41 c0 -5 -10 -13 -22 -17 -13 -4 -25 -10 -28 -13 -3 -4 -20
-17 -38 -30 -25 -17 -36 -21 -45 -12 -8 8 -6 11 10 11 22 0 47 23 36 33 -3 4
-1 7 5 7 21 0 27 2 47 16 23 16 35 18 35 5z m-104 -38 c-8 -8 -36 5 -36 17 0
7 6 7 21 0 11 -7 18 -14 15 -17z m-50 -10 c-10 -10 -19 5 -10 18 6 11 8 11 12
0 2 -7 1 -15 -2 -18z m533 24 c-2 -1 -13 -9 -24 -17 -19 -14 -19 -14 -6 3 7 9
18 17 24 17 6 0 8 -1 6 -3z m-264 -45 c-3 -3 -11 0 -18 7 -9 10 -8 11 6 5 10
-3 15 -9 12 -12z m-85 -42 c0 -5 -2 -10 -4 -10 -3 0 -8 5 -11 10 -3 6 -1 10 4
10 6 0 11 -4 11 -10z m-700 -50 c0 -5 -2 -10 -4 -10 -3 0 -8 5 -11 10 -3 6 -1
10 4 10 6 0 11 -4 11 -10z m934 -46 c3 -8 2 -13 -2 -12 -4 1 -15 -2 -25 -7
-10 -4 -21 -4 -24 -1 -4 4 3 9 15 13 21 5 21 6 5 19 -17 12 -16 13 4 8 12 -4
24 -12 27 -20z m51 -34 c3 -5 1 -10 -4 -10 -6 0 -11 5 -11 10 0 6 2 10 4 10 3
0 8 -4 11 -10z m0 -60 c-3 -5 -17 -10 -31 -10 -13 0 -24 5 -24 10 0 6 14 10
31 10 17 0 28 -4 24 -10z m-110 -60 c3 -5 1 -10 -4 -10 -6 0 -11 5 -11 10 0 6
2 10 4 10 3 0 8 -4 11 -10z m5 -34 c0 -3 -4 -8 -10 -11 -5 -3 -10 -1 -10 4 0
6 5 11 10 11 6 0 10 -2 10 -4z m-170 -72 c0 -8 -4 -14 -10 -14 -5 0 -10 9 -10
21 0 11 5 17 10 14 6 -3 10 -13 10 -21z m-375 -82 c-3 -3 -11 0 -18 7 -9 10
-8 11 6 5 10 -3 15 -9 12 -12z"/>
<path d="M536 1335 c4 -8 10 -12 15 -9 14 8 10 24 -6 24 -9 0 -12 -6 -9 -15z"/>
<path d="M645 1210 c-3 -5 -2 -10 4 -10 5 0 13 5 16 10 3 6 2 10 -4 10 -5 0
-13 -4 -16 -10z"/>
<path d="M698 1193 c7 -3 16 -2 19 1 4 3 -2 6 -13 5 -11 0 -14 -3 -6 -6z"/>
<path d="M1105 1160 c3 -5 8 -10 11 -10 2 0 4 5 4 10 0 6 -5 10 -11 10 -5 0
-7 -4 -4 -10z"/>
<path d="M591 1151 c-8 -5 -9 -11 -3 -15 5 -3 15 1 22 9 14 16 3 20 -19 6z"/>
<path d="M680 1130 c0 -11 4 -20 9 -20 6 0 9 9 8 20 -1 11 -5 20 -9 20 -4 0
-8 -9 -8 -20z"/>
<path d="M557 1073 c-10 -10 -8 -23 4 -23 5 0 7 6 3 13 -6 8 -3 8 9 -1 16 -14
37 -9 37 9 0 10 -43 12 -53 2z"/>
<path d="M796 1065 c-3 -8 -1 -15 4 -15 6 0 10 7 10 15 0 8 -2 15 -4 15 -2 0
-6 -7 -10 -15z"/>
<path d="M1182 955 c0 -16 2 -22 5 -12 2 9 2 23 0 30 -3 6 -5 -1 -5 -18z"/>
<path d="M161 954 c0 -11 3 -14 6 -6 3 7 2 16 -1 19 -3 4 -6 -2 -5 -13z"/>
<path d="M363 773 c-22 -8 -14 -33 10 -33 16 0 18 3 8 9 -7 5 -10 14 -7 20 8
12 7 12 -11 4z"/>
<path d="M546 708 c4 -7 14 -21 22 -30 11 -13 12 -21 4 -31 -8 -10 -6 -16 10
-26 17 -11 26 -10 54 5 18 10 36 24 39 31 3 11 0 11 -16 2 -11 -6 -23 -8 -27
-5 -3 3 0 6 6 6 7 0 12 7 12 16 0 10 -6 14 -15 10 -8 -3 -18 1 -22 9 -5 7 -11
14 -15 14 -5 1 -9 1 -10 2 -30 9 -48 7 -42 -3z"/>
<path d="M685 650 c-3 -5 -1 -10 4 -10 6 0 11 5 11 10 0 6 -2 10 -4 10 -3 0
-8 -4 -11 -10z"/>
<path d="M230 639 c0 -5 5 -7 10 -4 6 3 10 8 10 11 0 2 -4 4 -10 4 -5 0 -10
-5 -10 -11z"/>
<path d="M340 619 c0 -5 5 -7 10 -4 6 3 10 8 10 11 0 2 -4 4 -10 4 -5 0 -10
-5 -10 -11z"/>
<path d="M510 620 c0 -5 5 -10 11 -10 5 0 7 5 4 10 -3 6 -8 10 -11 10 -2 0 -4
-4 -4 -10z"/>
<path d="M645 579 c-5 -22 -3 -34 6 -40 18 -11 26 -2 11 13 -8 8 -7 17 5 34
14 22 14 24 0 24 -9 0 -18 -13 -22 -31z"/>
<path d="M688 583 c7 -3 16 -2 19 1 4 3 -2 6 -13 5 -11 0 -14 -3 -6 -6z"/>
<path d="M975 570 c-3 -5 -1 -10 4 -10 6 0 11 5 11 10 0 6 -2 10 -4 10 -3 0
-8 -4 -11 -10z"/>
<path d="M250 560 c0 -12 8 -12 35 0 18 8 17 9 -7 9 -16 1 -28 -3 -28 -9z"/>
<path d="M725 560 c3 -5 8 -10 11 -10 2 0 4 5 4 10 0 6 -5 10 -11 10 -5 0 -7
-4 -4 -10z"/>
<path d="M530 556 c0 -2 7 -6 15 -10 8 -3 15 -1 15 4 0 6 -7 10 -15 10 -8 0
-15 -2 -15 -4z"/>
<path d="M575 550 c3 -5 13 -10 21 -10 8 0 12 5 9 10 -3 6 -13 10 -21 10 -8 0
-12 -4 -9 -10z"/>
<path d="M770 550 c0 -5 5 -10 10 -10 6 0 10 5 10 10 0 6 -4 10 -10 10 -5 0
-10 -4 -10 -10z"/>
<path d="M540 510 c-13 -11 -18 -20 -12 -20 6 0 14 5 17 10 3 6 11 10 16 10 6
0 7 -5 3 -12 -5 -8 -2 -9 10 -5 10 4 23 7 29 7 11 0 -22 29 -34 30 -3 0 -16
-9 -29 -20z"/>
<path d="M1030 500 c0 -11 4 -20 9 -20 5 0 7 9 4 20 -3 11 -7 20 -9 20 -2 0
-4 -9 -4 -20z"/>
<path d="M1104 505 c-10 -8 -14 -14 -9 -15 15 0 40 18 34 24 -3 3 -14 -1 -25
-9z"/>
<path d="M330 480 c-13 -8 -13 -10 -1 -10 11 0 11 -3 -3 -13 -18 -14 -13 -47
8 -47 17 0 68 -55 59 -63 -3 -4 8 -7 25 -7 22 0 32 -5 32 -15 0 -8 7 -15 15
-15 8 0 15 5 15 10 0 6 -4 10 -10 10 -16 0 -12 17 6 24 12 5 15 2 10 -9 -8
-23 19 -29 46 -11 14 9 28 13 31 9 4 -3 7 -1 7 6 0 16 -33 28 -38 13 -4 -13
-23 -17 -20 -4 2 12 -14 42 -23 42 -4 0 -6 -7 -3 -15 4 -10 0 -15 -13 -15 -10
0 -24 -5 -30 -11 -21 -21 -35 -5 -15 16 18 20 19 45 1 45 -4 0 -6 -6 -3 -14 7
-20 -33 -27 -51 -9 -20 20 -19 25 7 21 11 -2 23 3 26 11 4 11 -5 12 -44 8 -33
-4 -41 -3 -24 3 14 4 21 9 15 9 -5 1 -4 5 4 10 7 5 10 14 7 20 -9 13 -16 14
-36 1z"/>
<path d="M893 415 c0 -8 4 -12 9 -9 5 3 6 10 3 15 -9 13 -12 11 -12 -6z"/>
<path d="M820 375 c0 -15 18 -40 24 -34 3 3 -1 14 -9 25 -8 10 -14 15 -15 9z"/>
<path d="M760 325 c0 -8 7 -15 16 -15 14 0 14 3 4 15 -7 8 -14 15 -16 15 -2 0
-4 -7 -4 -15z"/>
<path d="M600 280 c0 -5 5 -10 10 -10 6 0 10 5 10 10 0 6 -4 10 -10 10 -5 0
-10 -4 -10 -10z"/>
</g>
</svg>
